<?xml version="1.0" encoding="utf-8"?>
<!-- Generator: Adobe Illustrator 24.1.1, SVG Export Plug-In . SVG Version: 6.00 Build 0)  -->
<svg version="1.1" id="Camada_1" xmlns="http://www.w3.org/2000/svg" xmlns:xlink="http://www.w3.org/1999/xlink" x="0px" y="0px"
	 viewBox="0 0 22.7 22.7" style="enable-background:new 0 0 22.7 22.7;" xml:space="preserve">
<style type="text/css">
	.st0{fill:#C6C7C6;}
</style>
<path class="st0" d="M5.4,2.6C4.9,2.7,4.5,2.9,4.1,3.2C3.8,3.4,3.5,3.6,3.3,3.9C3.1,4.1,2.9,4.6,2.8,5L2.7,5.3v12.1l0.1,0.3
	c0.1,0.3,0.3,0.9,0.5,1.1c0.4,0.5,0.9,0.9,1.5,1.1C5.3,20,5.1,20,11.4,20c6.3,0,6.1,0,6.5-0.2c0.6-0.2,1.1-0.6,1.5-1.1
	c0.2-0.3,0.4-0.8,0.5-1.1l0.1-0.3V5.3L20,5c-0.1-0.3-0.3-0.9-0.5-1.1c-0.2-0.3-0.5-0.5-0.7-0.7c-0.3-0.2-0.6-0.4-1-0.5l-0.3-0.1
	l-5.9,0C8.2,2.6,5.5,2.6,5.4,2.6L5.4,2.6z M13.5,5.8c0.9,0.2,1.5,0.5,2,0.9c0.2,0.2,0.4,0.6,0.5,0.9C16,7.9,16,8,16,8.5
	c0,0.5,0,0.6-0.1,0.8c-0.2,0.6-0.6,1.1-1.2,1.5l-0.2,0.1l0.2,0c0.2,0.1,0.6,0.3,0.8,0.4c0.5,0.4,0.8,1,1,1.7c0.1,0.3,0.1,1.1,0,1.4
	c-0.3,1.3-1.2,2.1-2.7,2.4C13.2,17,13,17,10,17H7.1V5.8l3,0C12.9,5.8,13.2,5.8,13.5,5.8z M9.6,9v1.3l1.4,0c1.3,0,1.4,0,1.6-0.1
	c0.7-0.2,0.9-0.6,0.9-1.3c0-0.5-0.2-0.9-0.6-1.1c-0.4-0.2-0.8-0.2-2.3-0.2H9.6C9.6,7.7,9.6,9,9.6,9z M9.6,13.5v1.5l1.5,0
	c1.7,0,1.8,0,2.2-0.2c0.5-0.2,0.7-0.6,0.7-1.3c0-0.8-0.3-1.3-1.1-1.5C12.8,12,12.7,12,11.2,12l-1.6,0L9.6,13.5L9.6,13.5z"/>
</svg>
