<?xml version="1.0" encoding="utf-8"?>
<!-- Generator: Adobe Illustrator 24.1.1, SVG Export Plug-In . SVG Version: 6.00 Build 0)  -->
<svg version="1.1" id="Capa_1" xmlns="http://www.w3.org/2000/svg" xmlns:xlink="http://www.w3.org/1999/xlink" x="0px" y="0px"
	 viewBox="0 0 60.9 60.9" style="enable-background:new 0 0 60.9 60.9;" xml:space="preserve">
<style type="text/css">
	.st0{fill:#E9E9E9;}
</style>
<g>
	<path class="st0" d="M44.2,20.4h-7.3v4.3h7.3c2.2,0,3.9,1.1,3.9,2.1v19.2c0,1-1.7,2.1-3.9,2.1H16.6c-2.2,0-3.8-1.1-3.8-2.1V26.8
		c0-1,1.7-2.1,3.8-2.1h7.3v-4.3h-7.3c-4.6,0-8.2,2.8-8.2,6.4v19.2c0,3.6,3.6,6.4,8.2,6.4h27.6c4.6,0,8.2-2.8,8.2-6.4V26.8
		C52.3,23.2,48.7,20.4,44.2,20.4z"/>
	<path class="st0" d="M36.9,29.4c-0.6,0-1.1,0.2-1.5,0.6l-2.7,2.7v-9.4V19v-8.3c0-1.2-1-2.2-2.2-2.2s-2.2,1-2.2,2.2V19v4.3v9.5
		L25.5,30c-0.4-0.4-1-0.6-1.5-0.6s-1.1,0.2-1.5,0.6c-0.8,0.8-0.8,2.2,0,3.1l6.5,6.5c0.4,0.4,1,0.6,1.5,0.6c0,0,0,0,0,0c0,0,0,0,0,0
		c0.6,0,1.1-0.2,1.5-0.6l6.5-6.5c0.8-0.8,0.8-2.2,0-3.1C38,29.6,37.5,29.4,36.9,29.4z"/>
</g>
</svg>
