<?xml version="1.0" encoding="utf-8"?>
<!-- Generator: Adobe Illustrator 24.1.1, SVG Export Plug-In . SVG Version: 6.00 Build 0)  -->
<svg version="1.1" id="Camada_1" xmlns="http://www.w3.org/2000/svg" xmlns:xlink="http://www.w3.org/1999/xlink" x="0px" y="0px"
	 viewBox="0 0 100 81.8" style="enable-background:new 0 0 100 81.8;" xml:space="preserve">
<style type="text/css">
	.st0{fill:#05628C;}
</style>
<path class="st0" d="M80.4,18c4.2,0,7.6-3.5,7.6-7.8c0-4.3-3.4-7.8-7.6-7.8c-4.2,0-7.6,3.5-7.6,7.8S76.2,18,80.4,18z"/>
<path class="st0" d="M96.1,33.1l-12.7,2c-1.8,0.3-3.7-1-4.2-2.8L75.6,20c-0.5-1.8-2.3-4-3.9-4.8l-17.4-9c-1.6-0.9-4.4-1.2-6.2-0.7
	L32.9,9.3c-1.8,0.4-3.2,2.2-3.2,3.9c0,1.7,1.5,2.7,3.2,2.3l13.3-3.3c1.8-0.4,4.5,0,6.1,1l4.3,2.7c1.6,1,1.6,2.6,0,3.5l-13.4,8.3
	c-1.6,1-3.6,2.9-4.5,4.2c-0.9,1.3,2.5,8.8,3.3,10.5l4.2,9.1c0.8,1.7-0.1,3.2-1.9,3.2H27.4c-1.8,0-3.2,1.5-3.1,3.4l0.2,2.2
	c0.1,1.9,1.8,2.9,3.6,2.9h29.4c1.8,0,2.8-1,2.2-2.8l-5.2-13.8c-0.7-1.8-1.6-4.6-2.1-6.4l-0.2-0.6c-0.5-1.8,0.4-4.1,2-5l9.3-5.6
	c1.6-1,3.7-2.1,4.7-2.7c1-0.5,2.3,0.6,2.8,2.4l3.2,11.5c0.5,1.8,2.4,3,4.2,2.6L96.1,39c1.8-0.4,3.3-2,3.3-3.6S97.9,32.8,96.1,33.1z"
	/>
<path class="st0" d="M48.1,65.6h-7.1c-1.8,0-4.6,0.7-6.1,1.8l-8.4,6c-1.5,1.1-1.9,3.2-0.8,4.7l1.7,2.4c1.1,1.5,3.1,1.8,4.5,0.6
	l16.9-13.6C50.2,66.3,49.9,65.6,48.1,65.6z"/>
<path class="st0" d="M39.4,24.2c1.8,0,3.3-0.6,3.3-1.2s-1.5-1.2-3.3-1.2H4.3c-1.8,0-3.3,0.6-3.3,1.2s1.5,1.2,3.3,1.2H39.4z"/>
<path class="st0" d="M37.6,27.8c0-0.6-1.5-1.2-3.3-1.2H8.3c-1.8,0-3.3,0.6-3.3,1.2C5,28.4,6.5,29,8.3,29h25.9
	C36.1,29,37.6,28.4,37.6,27.8z"/>
<path class="st0" d="M35.9,32.7c0-0.6-1.5-1.2-3.3-1.2H11.1c-1.8,0-3.3,0.6-3.3,1.2c0,0.6,1.5,1.2,3.3,1.2h21.5
	C34.4,33.9,35.9,33.3,35.9,32.7z"/>
</svg>
