<?xml version="1.0" encoding="utf-8"?>
<!-- Generator: Adobe Illustrator 24.1.1, SVG Export Plug-In . SVG Version: 6.00 Build 0)  -->
<svg version="1.1" id="Capa_1" xmlns="http://www.w3.org/2000/svg" xmlns:xlink="http://www.w3.org/1999/xlink" x="0px" y="0px"
	 viewBox="0 0 65.5 65.5" style="enable-background:new 0 0 65.5 65.5;" xml:space="preserve">
<style type="text/css">
	.st0{fill:#C01414;}
</style>
<g>
	<path class="st0" d="M34.1,8.3C20.3,8.3,9,19.6,9,33.4s11.3,25.1,25.1,25.1s25.1-11.3,25.1-25.1S47.9,8.3,34.1,8.3z M13.6,33.4
		c0-11.3,9.2-20.5,20.5-20.5c5.1,0,9.8,1.9,13.3,5L18.6,46.8C15.5,43.2,13.6,38.5,13.6,33.4z M34.1,53.9c-4.6,0-8.8-1.5-12.2-4
		l28.6-28.6c2.5,3.4,4,7.6,4,12.2C54.6,44.7,45.4,53.9,34.1,53.9z"/>
</g>
</svg>
